<?xml version="1.0" encoding="utf-8"?>
<!-- Generator: Adobe Illustrator 26.0.3, SVG Export Plug-In . SVG Version: 6.00 Build 0)  -->
<svg version="1.1" id="Capa_1" xmlns="http://www.w3.org/2000/svg" xmlns:xlink="http://www.w3.org/1999/xlink" x="0px" y="0px"
	 viewBox="0 0 50 50" style="enable-background:new 0 0 50 50;" xml:space="preserve">
<style type="text/css">
	.st0{fill:#6EFEB6;}
</style>
<path class="st0" d="M25,4.04c11.56,0,20.96,9.4,20.96,20.96S36.56,45.96,25,45.96S4.04,36.56,4.04,25S13.44,4.04,25,4.04 M25,1.04
	C11.77,1.04,1.04,11.77,1.04,25S11.77,48.96,25,48.96S48.96,38.23,48.96,25S38.23,1.04,25,1.04L25,1.04z"/>
<path class="st0" d="M37.12,23.47H27V13.34c0-1.1-0.9-2-2-2s-2,0.9-2,2v10.12H12.88c-1.1,0-2,0.9-2,2c0,1.1,0.9,2,2,2H23v10.12
	c0,1.1,0.9,2,2,2s2-0.9,2-2V27.47h10.12c1.1,0,2-0.9,2-2C39.12,24.36,38.23,23.47,37.12,23.47z"/>
</svg>
